<svg width="36" height="36" viewBox="0 0 36 36" fill="none" xmlns="http://www.w3.org/2000/svg">
<path d="M2.48084 0.25H33.3423C34.7115 0.25 35.8232 1.35117 35.8232 2.70743V33.2926C35.8232 34.6488 34.7115 35.75 33.3423 35.75H2.48084C1.11166 35.75 0 34.6488 0 33.2926V2.70743C0 1.35117 1.11166 0.25 2.48084 0.25Z" fill="#FCD322"/>
<path d="M17.9039 34.3301C27.0086 34.3301 34.3894 27.0189 34.3894 18C34.3894 8.98124 27.0086 1.67004 17.9039 1.67004C8.79922 1.67004 1.4184 8.98124 1.4184 18C1.4184 27.0189 8.79922 34.3301 17.9039 34.3301Z" fill="#08003C"/>
<path d="M28.8978 13.401C28.9556 13.3288 30.3035 11.5995 29.9589 8.42819C29.9589 8.42792 29.9589 8.42792 29.9589 8.42792C29.9587 8.42577 29.9587 8.42362 29.9584 8.42174C29.9555 8.39457 29.9474 8.36889 29.9368 8.34455C29.936 8.34267 29.936 8.34052 29.9352 8.33863C29.9329 8.33352 29.9288 8.33003 29.9258 8.32532C29.9158 8.3065 29.9039 8.28942 29.8896 8.27395C29.8834 8.26696 29.8769 8.26051 29.8701 8.25446C29.8701 8.25446 29.8699 8.25446 29.8699 8.25419C29.8548 8.24074 29.8386 8.22958 29.8199 8.21963C29.8135 8.21586 29.8073 8.21156 29.8005 8.20847C29.7967 8.20685 29.7948 8.20443 29.7911 8.20309C29.7404 8.18305 29.6861 8.18036 29.6348 8.19099C29.6315 8.19152 29.6282 8.19099 29.6251 8.19152L26.0113 9.08602C25.9881 9.06544 25.9524 9.04514 25.9214 9.03196C25.8161 8.93729 25.72 8.92237 21.6028 8.92237C16.9775 8.92237 10.0245 8.96647 9.95488 8.96674C9.88592 8.96701 9.82008 8.99377 9.77013 9.04084C9.75968 9.05092 9.7499 9.06168 9.73945 9.0719L6.1836 8.19099C6.18021 8.19018 6.17695 8.19099 6.17369 8.19045C6.12238 8.17983 6.06781 8.18251 6.01731 8.20255C6.01391 8.20363 6.0112 8.20605 6.00767 8.20766C6.00088 8.21075 5.99491 8.21506 5.98799 8.21882C5.97007 8.22904 5.95337 8.23993 5.93857 8.25338H5.9383C5.93124 8.25997 5.925 8.26642 5.91862 8.27342C5.9045 8.28915 5.89269 8.30623 5.88264 8.32505C5.87966 8.32976 5.87559 8.33326 5.87328 8.33837C5.87219 8.34025 5.87219 8.34213 5.87165 8.34428C5.86106 8.36862 5.85291 8.39457 5.85006 8.42147C5.84952 8.42362 5.84952 8.4255 5.84925 8.42765C5.84925 8.42765 5.84925 8.42792 5.84925 8.42819C5.52793 11.3828 6.67529 13.0842 6.88041 13.3615C6.39469 14.6469 6.14071 16.0232 6.14071 17.4428C6.14071 22.5529 9.49021 26.8995 14.1274 28.4498C12.9459 28.6062 12.0305 29.6091 12.0305 30.8212C12.0305 31.3597 12.4729 31.7977 13.0163 31.7977C13.2981 31.7977 13.5524 31.6803 13.7324 31.4915C13.9123 31.6798 14.1665 31.7977 14.4484 31.7977C14.7299 31.7977 14.9842 31.6803 15.164 31.4915C15.344 31.6798 15.5983 31.7977 15.8801 31.7977C16.4238 31.7977 16.8661 31.3594 16.8661 30.8212C16.8661 30.0262 16.4713 29.3226 15.8678 28.8867C16.518 28.998 17.1854 29.0595 17.867 29.0595C18.5324 29.0595 19.1837 29.0015 19.8186 28.8956C19.2219 29.3325 18.832 30.0317 18.832 30.8217C18.832 31.3605 19.2744 31.7982 19.8181 31.7982C20.0996 31.7982 20.354 31.6808 20.5338 31.4923C20.7135 31.6803 20.9679 31.7982 21.2495 31.7982C21.5315 31.7982 21.7855 31.6808 21.9653 31.4923C22.1457 31.6803 22.3997 31.7982 22.6815 31.7982C23.2254 31.7982 23.667 31.3597 23.667 30.8217C23.667 29.6175 22.7643 28.6212 21.5949 28.4541C26.2383 26.9066 29.5935 22.5573 29.5935 17.4433C29.5935 16.0456 29.3467 14.6888 28.8748 13.419C28.8827 13.4118 28.8919 13.4085 28.8978 13.401ZM29.4628 8.98732C29.557 10.792 29.0593 12.0387 28.7355 12.646C28.4881 12.0858 28.0334 11.1859 27.4676 10.6406L29.4628 8.98732ZM6.34542 8.98732L8.34108 10.6406C7.77473 11.1859 7.32038 12.0858 7.0729 12.646C6.74887 12.0384 6.25148 10.792 6.34542 8.98732ZM12.3152 23.1834C9.13169 23.1834 6.55108 20.6267 6.55108 17.4733C6.55108 14.3201 9.13169 11.7637 12.3152 11.7637C14.8754 11.7637 16.9834 13.42 17.7341 15.7082C17.7081 15.7913 17.695 19.1176 17.7362 19.2499C16.9825 21.5335 14.8722 23.1834 12.3152 23.1834ZM17.8675 22.8583L16.8487 21.4225C17.3066 20.9054 17.6742 20.3054 17.9333 19.643C18.178 20.2705 18.5224 20.8404 18.9467 21.3381L17.8675 22.8583ZM29.3163 17.4736C29.3163 20.627 26.735 23.1837 23.552 23.1837C20.6614 23.1766 18.088 20.7038 18.0934 18.7871C18.0988 16.8702 18.1148 17.327 18.1264 16.0264C18.1379 14.7258 19.7622 11.6103 23.552 11.7645C26.7358 11.764 29.3163 14.3204 29.3163 17.4736Z" fill="#FCD322"/>
<path d="M15.2646 16.6332C14.6711 16.6332 14.1905 16.1566 14.1905 15.5692C14.1905 14.9815 14.6711 14.5052 15.2646 14.5052C15.4314 14.5052 15.5873 14.5461 15.7285 14.6132C15.3383 14.2163 14.7938 13.9691 14.1905 13.9691C13.0041 13.9691 12.0423 14.9218 12.0423 16.097C12.0423 17.272 13.0041 18.2248 14.1905 18.2248C15.377 18.2248 16.3385 17.272 16.3385 16.097C16.3385 15.9932 16.3285 15.892 16.314 15.7922C16.2105 16.2727 15.7811 16.6332 15.2646 16.6332Z" fill="#FCD322"/>
<path d="M26.5428 16.6332C25.9492 16.6332 25.4685 16.1566 25.4685 15.5692C25.4685 14.9815 25.9492 14.5052 26.5428 14.5052C26.7094 14.5052 26.8655 14.5461 27.0064 14.6132C26.6165 14.2163 26.072 13.9691 25.4685 13.9691C24.282 13.9691 23.3205 14.9218 23.3205 16.097C23.3205 17.272 24.282 18.2248 25.4685 18.2248C26.6548 18.2248 27.6164 17.272 27.6164 16.097C27.6164 15.9932 27.6067 15.892 27.5922 15.7922C27.4887 16.2727 27.0587 16.6332 26.5428 16.6332Z" fill="#FCD322"/>
</svg>
